PathFileType	4	(X/Y/Z)	/Users/itak/Documents/Research/Walk-IL/dataset/trc/00259_00009.trc
DataRate	CameraRate	NumFrames	NumMarkers	Units	OrigDataRate	OrigDataStartFrame	OrigNumFrames
100.000000	100.000000	4	54	mm	100.000000	486	556
Frame#	Time	RPSI			LPSI			L3			STRN			T10			C7			CLAV			RBAK			LBAK			LSHO			LUPA			LAEL			LAOL			LWTS			LWPS			LFRA			LIFD			LHPS			LHTS			RSHO			RUPA			RAEL			RAOL			RWTS			RWPS			RFRA			RIFD			RHTS			RHPS			RBHD			LFHD			RFHD			LBHD			LHIP			RHIP			RASI			LASI			LKNE			LTHI			LANK			LTIP			LTOE			LMT1			LMT5			LHEE			RKNE			RTHI			RANK			RTIP			RTOE			RMT5			RMT1			RHEE			*53			
		X1	Y1	Z1	X2	Y2	Z2	X3	Y3	Z3	X4	Y4	Z4	X5	Y5	Z5	X6	Y6	Z6	X7	Y7	Z7	X8	Y8	Z8	X9	Y9	Z9	X10	Y10	Z10	X11	Y11	Z11	X12	Y12	Z12	X13	Y13	Z13	X14	Y14	Z14	X15	Y15	Z15	X16	Y16	Z16	X17	Y17	Z17	X18	Y18	Z18	X19	Y19	Z19	X20	Y20	Z20	X21	Y21	Z21	X22	Y22	Z22	X23	Y23	Z23	X24	Y24	Z24	X25	Y25	Z25	X26	Y26	Z26	X27	Y27	Z27	X28	Y28	Z28	X29	Y29	Z29	X30	Y30	Z30	X31	Y31	Z31	X32	Y32	Z32	X33	Y33	Z33	X34	Y34	Z34	X35	Y35	Z35	X36	Y36	Z36	X37	Y37	Z37	X38	Y38	Z38	X39	Y39	Z39	X40	Y40	Z40	X41	Y41	Z41	X42	Y42	Z42	X43	Y43	Z43	X44	Y44	Z44	X45	Y45	Z45	X46	Y46	Z46	X47	Y47	Z47	X48	Y48	Z48	X49	Y49	Z49	X50	Y50	Z50	X51	Y51	Z51	X52	Y52	Z52	X53	Y53	Z53	X54	Y54	Z54	

487	4.86	-46.75289535522461	1046.047729492188	-337.1394653320312	-165.3983917236328	1051.029541015625	-358.8422241210938	-125.194091796875	1122.336669921875	-345.0601501464844	-89.67919921875	1319.371948242188	-587.6737060546875	-120.5394134521484	1250.4169921875	-339.7310180664062	-117.8400192260742	1514.025146484375	-391.95361328125	-92.20273590087891	1435.451293945312	-557.4876708984375	-56.99890899658203	1371.047485351562	-312.5224914550781	-228.7501678466797	1474.904174804688	-387.3116149902344	-272.9247131347656	1478.487670898438	-482.4173278808594	-353.1347351074219	1358.40771484375	-463.3645629882812	-373.8707275390625	1148.525512695312	-483.00537109375	-331.4004211425781	1129.531494140625	-408.9452819824219	-295.3690490722656	934.3282470703125	-599.6314697265625	-377.8437805175781	910.052001953125	-584.4053955078125	-382.0565185546875	1044.241577148438	-518.0014038085938	-290.0337219238281	743.1672973632812	-629.4395141601562	-364.5351257324219	824.9962768554688	-613.4691162109375	-307.2818603515625	839.4994506835938	-649.105224609375	58.17271423339844	1475.513671875	-424.7643432617188	120.0908432006836	1409.734985351562	-396.9698181152344	160.6199798583984	1130.596801757812	-375.05126953125	66.39323425292969	1121.2998046875	-365.2637023925781	159.0437927246094	919.76611328125	-525.1488647460938	210.7366790771484	906.571533203125	-459.8197326660156	181.7861175537109	1064.07177734375	-400.3073120117188	161.5741119384766	729.4380493164062	-545.6890869140625	186.8198699951172	800.658203125	-563.5353393554688	225.320068359375	801.0358276367188	-502.1830444335938	-57.87302398681641	1666.46875	-417.6812744140625	-127.7754287719727	1730.956176757812	-623.9158325195312	-28.26341247558594	1727.858154296875	-611.82568359375	-184.4247283935547	1680.572509765625	-477.6290893554688	-285.5043640136719	985.3292846679688	-478.4171447753906	72.29933166503906	1006.654541015625	-418.0611877441406	52.96169281005859	1052.476928710938	-518.5997924804688	-225.4311828613281	1028.292846679688	-571.482666015625	-220.5953826904297	501.4346618652344	-505.662353515625	-253.4804992675781	644.4124145507812	-506.3170166015625	-196.1462860107422	33.89061737060547	-403.8507995605469	-217.4337768554688	277.6017150878906	-450.2111206054688	-121.5314025878906	40.13712310791016	-614.2466430664062	-84.45163726806641	35.41450119018555	-540.66748046875	-201.1752166748047	35.24928665161133	-532.8120727539062	-149.4205780029297	39.40608978271484	-337.5796813964844	50.87615203857422	516.4283447265625	-490.9115295410156	92.67350006103516	782.85205078125	-482.9306640625	25.36490249633789	35.51837921142578	-399.5397644042969	36.28668212890625	395.4619750976562	-498.10302734375	0.5224471092224121	40.89485549926758	-614.8665161132812	61.29932403564453	34.89311599731445	-506.3608093261719	-47.25514221191406	37.31046676635742	-561.7183837890625	-38.35577392578125	34.29616546630859	-342.8370056152344	nan	nan	nan	
488	4.87	-45.99386596679688	1045.892333984375	-338.2454223632812	-164.5328826904297	1050.876220703125	-359.9793701171875	-124.4091796875	1122.21630859375	-346.0984191894531	-89.07567596435547	1319.39111328125	-588.6234741210938	-119.7700576782227	1250.30908203125	-340.7018127441406	-117.1323089599609	1513.94384765625	-392.7981262207031	-91.57253265380859	1435.463134765625	-558.4013671875	-56.27670288085938	1370.908081054688	-313.4492492675781	-228.0071868896484	1474.875	-388.1533203125	-272.2545471191406	1478.510009765625	-483.2251281738281	-352.4715881347656	1358.441284179688	-463.9399719238281	-373.2518920898438	1148.466064453125	-482.949462890625	-330.9550170898438	1129.803100585938	-409.1116638183594	-295.3291015625	933.3609008789062	-598.5704956054688	-377.8099975585938	909.23681640625	-582.737548828125	-381.7226867675781	1043.952026367188	-517.2979125976562	-290.2950744628906	742.0383911132812	-627.0072021484375	-364.5635986328125	823.9683227539062	-611.2083740234375	-307.5751953125	838.2886352539062	-647.35546875	58.82528686523438	1475.423461914062	-425.6394958496094	120.8552627563477	1409.708618164062	-397.8606262207031	161.7212982177734	1130.634155273438	-376.1503295898438	67.4417724609375	1121.1689453125	-366.5619812011719	161.2041168212891	920.03369140625	-526.3232421875	212.5305328369141	906.7000732421875	-460.7029113769531	183.0307922363281	1064.166381835938	-401.3801574707031	164.1971588134766	729.4379272460938	-546.7338256835938	189.0743255615234	800.5979614257812	-564.2611694335938	227.5532836914062	801.24169921875	-503.0345764160156	-57.13703536987305	1666.22021484375	-418.3134155273438	-126.9376525878906	1731.161254882812	-624.42724609375	-27.41306304931641	1728.031127929688	-612.2958374023438	-183.6710815429688	1680.494506835938	-478.2577819824219	-284.5667724609375	985.2149658203125	-479.580078125	72.92562866210938	1006.605407714844	-419.3377685546875	53.87953186035156	1052.558959960938	-519.7962036132812	-224.6099853515625	1028.2900390625	-572.7095947265625	-220.0037384033203	501.3270874023438	-506.7057495117188	-252.9458618164062	644.2965087890625	-507.4552001953125	-196.0287322998047	34.00188827514648	-403.8722534179688	-217.1192932128906	277.6211242675781	-450.802490234375	-121.501953125	40.12572479248047	-614.286376953125	-84.39867401123047	35.38670349121094	-540.687255859375	-201.1063842773438	35.29695510864258	-532.8190307617188	-149.2956695556641	39.4913215637207	-337.5863952636719	51.23992538452148	516.2464599609375	-491.1310119628906	93.01824951171875	782.6802368164062	-484.1532592773438	25.31699371337891	35.53250885009766	-399.53759765625	36.45608520507812	395.30322265625	-498.2339477539062	0.506553590297699	40.85955810546875	-614.9014282226562	61.27634429931641	34.89001846313477	-506.3731384277344	-47.2703742980957	37.29282760620117	-561.727294921875	-38.38447570800781	34.30960845947266	-342.8389282226562	nan	nan	nan	
489	4.88	-45.24301147460938	1045.714233398438	-339.3102722167969	-163.6557922363281	1050.706420898438	-361.0574035644531	-123.6173477172852	1122.0927734375	-347.0706481933594	-88.49095916748047	1319.38720703125	-589.5344848632812	-118.9927291870117	1250.197998046875	-341.6051330566406	-116.4555053710938	1513.85498046875	-393.6172485351562	-90.95696258544922	1435.455932617188	-559.2828979492188	-55.58806228637695	1370.766845703125	-314.3214416503906	-227.2985687255859	1474.842163085938	-388.9874572753906	-271.6062927246094	1478.522094726562	-484.0392761230469	-351.8369140625	1358.474243164062	-464.5531616210938	-372.6976623535156	1148.401977539062	-482.9720458984375	-330.60009765625	1130.041259765625	-409.3536376953125	-295.3615112304688	932.364501953125	-597.4869995117188	-377.819580078125	908.4224243164062	-581.09765625	-381.4505004882812	1043.65966796875	-516.6470947265625	-290.5955200195312	740.8832397460938	-624.5250854492188	-364.6652526855469	822.9325561523438	-608.9663696289062	-307.9486999511719	836.9853515625	-645.5103149414062	59.45467758178711	1475.323608398438	-426.4553527832031	121.5784683227539	1409.672241210938	-398.6875610351562	162.7890319824219	1130.654174804688	-377.1740417480469	68.44312286376953	1121.025512695312	-367.8047485351562	163.2662506103516	920.299560546875	-527.44970703125	214.2544403076172	906.8344116210938	-461.5902099609375	184.2276458740234	1064.2451171875	-402.4010009765625	166.7368927001953	729.4834594726562	-547.8710327148438	191.4287872314453	800.77880859375	-565.2051391601562	229.7161102294922	801.4744262695312	-503.9338684082031	-56.4290657043457	1665.964965820312	-418.9298400878906	-126.1076126098633	1731.337646484375	-624.9406127929688	-26.58399772644043	1728.18310546875	-612.7577514648438	-182.9464721679688	1680.402465820312	-478.8930358886719	-283.732666015625	985.23291015625	-480.6694641113281	73.62299346923828	1006.539123535156	-420.52490234375	54.75048446655273	1052.597900390625	-520.9407348632812	-223.8198089599609	1028.282470703125	-573.8674926757812	-219.4635772705078	501.22314453125	-507.719482421875	-252.3863067626953	644.178955078125	-508.5248413085938	-195.9267120361328	34.10125732421875	-403.8950500488281	-216.8117523193359	277.6412353515625	-451.3737487792969	-121.4693603515625	40.11229705810547	-614.3245239257812	-84.34619903564453	35.35758972167969	-540.7030029296875	-201.03955078125	35.34063720703125	-532.8253784179688	-149.1839141845703	39.56719207763672	-337.5944213867188	51.58874130249023	516.0738525390625	-491.4061279296875	93.30320739746094	782.4830932617188	-485.3912963867188	25.27392578125	35.54768753051758	-399.5386352539062	36.61542129516602	395.1434020996094	-498.4050903320312	0.4847373962402344	40.82879257202148	-614.9326171875	61.24861907958984	34.89401245117188	-506.3887634277344	-47.28681564331055	37.27364349365234	-561.734375	-38.41524505615234	34.32411193847656	-342.8372802734375	nan	nan	nan	
490	4.89	-44.50653076171875	1045.5205078125	-340.3403625488281	-162.7804718017578	1050.524780273438	-362.0777282714844	-122.8348541259766	1121.97216796875	-347.992919921875	-87.91606140136719	1319.365966796875	-590.4034423828125	-118.212890625	1250.087280273438	-342.4495849609375	-115.8071975708008	1513.76220703125	-394.407958984375	-90.34870910644531	1435.436645507812	-560.127685546875	-54.93035888671875	1370.626220703125	-315.1401977539062	-226.6272277832031	1474.8076171875	-389.8115539550781	-270.9802551269531	1478.5283203125	-484.8560180664062	-351.2302856445312	1358.507934570312	-465.203125	-372.2006530761719	1148.336547851562	-483.0765991210938	-330.2902221679688	1130.24609375	-409.6629333496094	-295.4725952148438	931.3470458984375	-596.3823852539062	-377.8695373535156	907.6148071289062	-579.489990234375	-381.2295532226562	1043.3662109375	-516.052490234375	-290.9490966796875	739.7035522460938	-621.9951782226562	-364.8450622558594	821.8944091796875	-606.7453002929688	-308.4075927734375	835.591064453125	-643.5713500976562	60.06209564208984	1475.221557617188	-427.2123718261719	122.261344909668	1409.633056640625	-399.4529724121094	163.8163299560547	1130.66259765625	-378.1276245117188	69.40248107910156	1120.873901367188	-368.9866638183594	165.1979217529297	920.5428466796875	-528.5150146484375	215.8991088867188	906.97998046875	-462.4838256835938	185.3725280761719	1064.315185546875	-403.3732604980469	169.1669769287109	729.570068359375	-549.082275390625	193.8652191162109	801.183349609375	-566.3689575195312	231.7938690185547	801.733642578125	-504.8711242675781	-55.74882125854492	1665.71142578125	-419.5297241210938	-125.2890319824219	1731.488159179688	-625.4552612304688	-25.78120040893555	1728.311889648438	-613.2161865234375	-182.2486419677734	1680.301147460938	-479.532470703125	-283.0144653320312	985.4229125976562	-481.6507568359375	74.36988830566406	1006.461120605469	-421.6369018554688	55.57709121704102	1052.61083984375	-522.0415649414062	-223.0769958496094	1028.275268554688	-574.9631958007812	-218.9677429199219	501.126708984375	-508.6951904296875	-251.8187255859375	644.0650634765625	-509.5294189453125	-195.8386688232422	34.18712615966797	-403.9183654785156	-216.5192108154297	277.6666564941406	-451.9220581054688	-121.4320831298828	40.0948486328125	-614.3613891601562	-84.29441070556641	35.32834625244141	-540.7154541015625	-200.9747924804688	35.37973785400391	-532.830810546875	-149.0871124267578	39.63636779785156	-337.6045227050781	51.93222045898438	515.911865234375	-491.7289733886719	93.57101440429688	782.2787475585938	-486.6122131347656	25.23967552185059	35.55947875976562	-399.5433044433594	36.7780647277832	394.9897155761719	-498.6082763671875	0.4620071947574615	40.80200958251953	-614.9595336914062	61.22224044799805	34.89945983886719	-506.40380859375	-47.30213165283203	37.25505065917969	-561.7390747070312	-38.44310760498047	34.33783340454102	-342.8333129882812	nan	nan	nan	
